<?xml version="1.0" encoding="UTF-8"?>
<svg id="a" xmlns="http://www.w3.org/2000/svg" version="1.1" viewBox="0 0 1920 270.8">
  <defs>
    <style>
      .cls-1 {
        fill: #fff;
        stroke-width: 0px;
      }
    </style>
  </defs>
  <path class="cls-1" d="M144.9,209.7h53.8c1.6,0,2.8-1.2,2.8-2.8v-.6c0-1.6-1.2-2.8-2.8-2.8h-50.5v-99.4c0-1.5-1.2-2.8-2.6-2.8h-.6c-1.6,0-2.8,1.2-2.8,2.8v102.8c0,1.6,1.2,2.8,2.8,2.8h0Z"/>
  <path class="cls-1" d="M478.4,170.2v-66.1c0-1.6-1.2-2.8-2.8-2.8h-.6c-1.6,0-2.8,1.2-2.8,2.8v66.1c0,21.1-13.5,34.8-34.5,34.8s-34.2-13.7-34.2-34.8v-66.1c0-1.6-1.2-2.8-2.8-2.8h-.6c-1.6,0-2.8,1.2-2.8,2.8v66c0,24.5,16.2,41,40.4,41s40.7-16.5,40.7-41h0Z"/>
  <path class="cls-1" d="M615.9,210.1c.3,0,.7,0,1.1-.2l1.5-.8c1.2-.8,1.5-2.3.7-3.5l-22.1-37c15.6-4,26.3-17.3,26.3-33.4s-15.8-33.8-35.9-33.8h-35.5c-1.6,0-2.8,1.2-2.8,2.8v102.8c0,1.6,1.2,2.8,2.8,2.8h.6c1.5,0,2.6-1.2,2.6-2.8v-37.2h32.4c1,0,2,0,3,0l23.2,39.1c.4.9,1.2,1.4,2.2,1.4h0ZM587.5,163.6h-32.4v-56.1h32.3c17,0,29.9,11.9,29.9,27.6s-13,28.5-29.7,28.5Z"/>
  <path class="cls-1" d="M954.8,189.9c-.4-.6-1-1-1.7-1-.8,0-1.6.2-2.1.7-9.7,8.8-21.2,13.5-33.4,13.5-28,0-49.9-21.7-49.9-49.3s22.4-49.6,49.9-49.6,23.1,4,33.4,12.8c1.1,1,2.6,1.1,3.8-.1l.9-1.1c.7-1.1.5-2.4-.5-3.5-11.8-9.9-23.4-14.3-37.5-14.3-30.9,0-56.1,25-56.1,55.8s24.7,55.5,56.1,55.5,27.4-5.2,37.8-15.2c.9-1,.9-2.5,0-3.4l-.6-.8h0Z"/>
  <path class="cls-1" d="M1051.7,60.3l-19.4,29.8c-1.4,1.5-.9,2.7-.4,3.5l.7.9c.6.6,1.2.9,1.8.9s1.2-.2,1.6-.6l17.5-28,17.5,28.1c.8.6,2.2.9,3.4-.5l.7-.9c.4-.6.9-1.9-.6-3.5l-19.2-29.6c-1-1-2.7-1-3.5-.1h0Z"/>
  <path class="cls-1" d="M1240.8,99.4h-.6c-1.6,0-2.8,1.2-2.8,2.8v94.8l-74.3-99c-.7-1-1.9-1.5-3.1-1.1-1.2.4-2,1.5-2,2.7v105.3c0,1.6,1.2,2.8,2.8,2.8h.6c1.6,0,2.8-1.2,2.8-2.8v-95.2l74.3,99c.5.8,1.4,1.2,2.3,1.2s.5,0,.8-.1c1.2-.4,2-1.5,2-2.7v-105c0-1.6-1.2-2.8-2.8-2.8h0Z"/>
  <path class="cls-1" d="M1348.2,99.4h-30c-1.4,0-2.6,1.2-2.6,2.8v102.8c0,1.5,1.2,2.8,2.6,2.8h30c30.1,0,54.6-24.4,54.6-54.3s-24.5-54-54.6-54h0ZM1348.2,201.5h-26.6v-96h26.6c26.8,0,48.6,21.5,48.6,47.8s-21.8,48.1-48.6,48.1h0Z"/>
  <path class="cls-1" d="M1470.7,99.4h-.6c-1.6,0-2.8,1.2-2.8,2.8v102.8c0,1.6,1.2,2.8,2.8,2.8h.6c1.6,0,2.8-1.2,2.8-2.8v-102.8c0-1.6-1.2-2.8-2.8-2.8Z"/>
  <path class="cls-1" d="M1578.1,99.4h-30c-1.4,0-2.6,1.2-2.6,2.8v102.8c0,1.5,1.2,2.8,2.6,2.8h30c30.1,0,54.6-24.4,54.6-54.3s-24.5-54-54.6-54h0ZM1578.1,201.5h-26.6v-96h26.6c26.8,0,48.6,21.5,48.6,47.8s-21.8,48.1-48.6,48.1h0Z"/>
  <path class="cls-1" d="M1777.8,204.2l-45.3-106.4c-.3-.7-1.2-1.6-2.6-1.6s-1.9.8-2.3,1.6l-46.2,106.6c-.4,1.4.2,2.6,1.6,3.1l1.3.5c.4.1,1.9.5,2.9-1.4l8.5-19.7h-.3l14.8-33.3h0l19.9-45.8,19.4,45.8h0l9.7,22.7h0l12.9,30.4c.6,1.2,1.4,1.4,2.1,1.4s.6,0,.8-.1l1.3-.5c.8-.3,1.3-.8,1.4-1.2s.4-1,0-2h0Z"/>
  <path class="cls-1" d="M1101.3,204.2l-45.3-106.4c-.3-.7-1.2-1.6-2.6-1.6s-1.9.8-2.3,1.6l-46.2,106.6c-.4,1.4.2,2.6,1.6,3.1l1.3.5c.4.1,1.9.5,2.9-1.4l8.5-19.7h-.3l14.8-33.3h0l19.9-45.8,19.4,45.8h0l9.7,22.7h0l12.9,30.4c.6,1.2,1.4,1.4,2.1,1.4s.6,0,.8-.1l1.3-.5c.8-.3,1.3-.8,1.4-1.2.2-.4.4-1,0-2h0Z"/>
  <path class="cls-1" d="M769,206.2l-45.3-106.4c-.3-.7-1.2-1.6-2.6-1.6s-1.9.8-2.3,1.5l-46.2,106.6c-.4,1.4.2,2.6,1.6,3.1l1.3.5c.4.1,1.9.5,2.9-1.4l8.5-19.7h-.3l14.8-33.3h0l19.9-45.8,19.4,45.8h0l9.7,22.7h0l12.9,30.4c.6,1.2,1.4,1.4,2.1,1.4s.6,0,.8-.1l1.3-.5c.8-.3,1.3-.8,1.5-1.2.2-.4.4-1,0-2h0Z"/>
  <path class="cls-1" d="M360.2,206.2l-45.3-106.4c-.4-.7-1.2-1.6-2.6-1.6s-1.9.8-2.3,1.5l-46.2,106.6c-.4,1.4.2,2.6,1.6,3.1l1.3.5c.4.1,1.9.5,2.9-1.4l8.5-19.7h-.3l14.8-33.3h0l19.9-45.8,19.4,45.8h0l9.7,22.7h0l12.9,30.4c.6,1.2,1.4,1.4,2.1,1.4s.6,0,.8-.1l1.3-.5c.8-.3,1.3-.8,1.5-1.2.2-.4.4-1,0-2h0Z"/>
</svg>