<?xml version="1.0" encoding="UTF-8"?><svg id="a" xmlns="http://www.w3.org/2000/svg" viewBox="0 0 1920 1080"><defs><style>.b{fill:#fff;stroke-width:0px;}</style></defs><path class="b" d="M264.96,482.37h82.06c2.38,0,4.25-1.87,4.25-4.26v-.92c0-2.39-1.87-4.25-4.25-4.25h-77.12s0-151.63,0-151.63c0-2.35-1.8-4.25-4.02-4.25h-.91c-2.38,0-4.25,1.87-4.25,4.25v156.8c0,2.38,1.87,4.25,4.25,4.25Z"/><path class="b" d="M773.91,422.1v-100.8c0-2.39-1.87-4.25-4.25-4.25h-.91c-2.38,0-4.26,1.87-4.26,4.25v100.8c0,32.26-20.67,53.12-52.66,53.12s-52.2-20.85-52.2-53.12v-100.8c0-2.38-1.87-4.25-4.25-4.25h-.91c-2.38,0-4.25,1.87-4.25,4.25v100.79c0,37.41,24.76,62.54,61.61,62.54s62.08-25.13,62.08-62.54Z"/><path class="b" d="M983.66,483.01c.53,0,1.1-.1,1.69-.3l2.25-1.26c1.86-1.23,2.26-3.55,1.04-5.4l-33.77-56.49c23.79-6.02,40.09-26.47,40.09-50.95,0-28.92-24.06-51.56-54.76-51.56h-54.17c-2.38,0-4.25,1.87-4.25,4.26v156.79c0,2.39,1.87,4.26,4.25,4.26h.92c2.22,0,4.02-1.91,4.02-4.26v-56.77h49.46c1.57,0,3.01,0,4.51-.09l35.41,59.67c.66,1.33,1.85,2.11,3.33,2.11ZM940.42,412.13h-49.46v-85.66h49.23c25.98,0,45.57,18.12,45.57,42.14s-19.91,43.52-45.34,43.52Z"/><path class="b" d="M403.17,737.07c-.6-.9-1.57-1.48-2.63-1.59-1.21-.15-2.4.31-3.18,1.1-14.78,13.46-32.42,20.57-51.02,20.57-42.73,0-76.2-33.07-76.2-75.28s34.19-75.75,76.2-75.75c19.5,0,35.25,6.08,50.93,19.57,1.62,1.61,3.95,1.62,5.73-.17l1.35-1.64c1.07-1.65.83-3.71-.77-5.31-18.05-15.13-35.7-21.88-57.24-21.88-47.22,0-85.62,38.2-85.62,85.17s37.61,84.7,85.62,84.7c21.86,0,41.79-8,57.69-23.21,1.44-1.49,1.44-3.82.12-5.15l-.97-1.14Z"/><path class="b" d="M551.06,539.28l-29.68,45.47c-2.21,2.21-1.43,4.19-.64,5.36l1.09,1.34c.86.95,1.8,1.31,2.72,1.31s1.77-.36,2.46-.88l26.66-42.78,26.77,42.85c1.25.94,3.37,1.39,5.25-.71l1.05-1.32c.65-.98,1.42-2.96-.97-5.35l-29.31-45.13c-1.5-1.47-4.08-1.46-5.38-.16Z"/><path class="b" d="M839.62,598.97h-.92c-2.38,0-4.25,1.87-4.25,4.25v144.73l-113.31-150.99c-1.05-1.58-2.93-2.3-4.78-1.74-1.82.55-3.05,2.21-3.05,4.12v160.69c0,2.38,1.87,4.25,4.25,4.25h.92c2.37,0,4.24-1.87,4.24-4.25v-145.19l113.31,151c.82,1.22,2.15,1.91,3.55,1.91.41,0,.83-.05,1.24-.18,1.83-.55,3.05-2.21,3.05-4.12v-160.23c0-2.38-1.87-4.25-4.25-4.25Z"/><path class="b" d="M1003.51,598.97h-45.71c-2.22,0-4.02,1.91-4.02,4.26v156.8c0,2.35,1.8,4.25,4.02,4.25h45.71c45.95,0,83.33-37.19,83.33-82.89s-37.38-82.42-83.33-82.42ZM1003.51,754.86h-40.54v-146.46h40.54c40.88,0,74.14,32.75,74.14,73s-33.25,73.46-74.14,73.46Z"/><path class="b" d="M1190.49,598.97h-.91c-2.38,0-4.25,1.87-4.25,4.26v156.79c0,2.39,1.87,4.26,4.25,4.26h.91c2.38,0,4.25-1.87,4.25-4.26v-156.79c0-2.39-1.87-4.26-4.25-4.26Z"/><path class="b" d="M1354.39,598.97h-45.72c-2.22,0-4.02,1.91-4.02,4.25v156.8c0,2.35,1.8,4.25,4.02,4.25h45.72c45.95,0,83.33-37.19,83.33-82.88s-37.38-82.43-83.33-82.42ZM1354.39,754.85h-40.55v-146.46h40.55c40.88,0,74.14,32.75,74.14,73s-33.25,73.46-74.14,73.46Z"/><path class="b" d="M1659.01,758.98l-69.08-162.41c-.54-1.11-1.79-2.41-3.99-2.41-1.7,0-2.93,1.22-3.5,2.37l-70.57,162.68c-.66,2.07.32,4,2.37,4.69l2.04.68c.65.21,2.93.77,4.45-2.15l12.93-30.04h-.41l22.54-50.77h0l30.35-69.85,29.59,69.85h0l14.83,34.65h.03l19.74,46.32c.89,1.79,2.18,2.19,3.15,2.19.53,0,.95-.12,1.19-.19l2.05-.68c1.29-.43,1.92-1.24,2.22-1.85s.57-1.6.07-3.08Z"/><path class="b" d="M626.74,758.98l-69.08-162.41c-.54-1.11-1.79-2.41-3.99-2.41-1.7,0-2.93,1.22-3.5,2.37l-70.57,162.68c-.66,2.07.32,4,2.37,4.69l2.04.68c.65.21,2.93.77,4.45-2.15l12.93-30.04h-.41l22.54-50.77h0l30.35-69.85,29.59,69.85h0l14.83,34.65h.03l19.74,46.32c.89,1.79,2.18,2.19,3.15,2.19.53,0,.95-.12,1.19-.19l2.05-.68c1.29-.43,1.92-1.24,2.22-1.85.3-.61.57-1.6.07-3.08Z"/><path class="b" d="M1217.38,477.06l-69.08-162.41c-.54-1.11-1.79-2.41-3.99-2.41-1.7,0-2.93,1.22-3.5,2.37l-70.57,162.68c-.66,2.07.32,4,2.37,4.69l2.04.68c.65.21,2.93.77,4.45-2.15l12.93-30.04h-.41l22.54-50.77h0l30.35-69.85,29.59,69.85h0l14.83,34.65h.03l19.74,46.32c.89,1.79,2.18,2.19,3.15,2.19.53,0,.95-.12,1.19-.19l2.05-.68c1.29-.43,1.92-1.24,2.22-1.85.3-.61.57-1.6.07-3.08Z"/><path class="b" d="M593.47,477.06l-69.08-162.41c-.54-1.11-1.79-2.41-3.99-2.41-1.7,0-2.93,1.22-3.5,2.37l-70.57,162.68c-.66,2.07.32,4,2.37,4.69l2.04.68c.65.21,2.93.77,4.45-2.15l12.93-30.04h-.41l22.54-50.77h0l30.35-69.85,29.59,69.85h0l14.83,34.65h.03l19.74,46.32c.89,1.79,2.18,2.19,3.15,2.19.53,0,.95-.12,1.19-.19l2.05-.68c1.29-.43,1.92-1.24,2.22-1.85.3-.61.57-1.6.07-3.08Z"/></svg>