<?xml version="1.0" encoding="UTF-8"?><svg id="a" xmlns="http://www.w3.org/2000/svg" viewBox="0 0 160 36"><defs><style>.b{fill:#fff;stroke-width:0px;}</style></defs><path class="b" d="M28.08,13.7h6.13c.18,0,.32-.14.32-.32v-.07c0-.18-.14-.32-.32-.32h-5.76s0-11.33,0-11.33c0-.18-.13-.32-.3-.32h-.07c-.18,0-.32.14-.32.32v11.71c0,.18.14.32.32.32Z"/><path class="b" d="M66.1,9.19V1.66c0-.18-.14-.32-.32-.32h-.07c-.18,0-.32.14-.32.32v7.53c0,2.41-1.54,3.97-3.93,3.97s-3.9-1.56-3.9-3.97V1.66c0-.18-.14-.32-.32-.32h-.07c-.18,0-.32.14-.32.32v7.53c0,2.79,1.85,4.67,4.6,4.67s4.64-1.88,4.64-4.67Z"/><path class="b" d="M81.77,13.74s.08,0,.13-.02l.17-.09c.14-.09.17-.27.08-.4l-2.52-4.22c1.78-.45,2.99-1.98,2.99-3.81,0-2.16-1.8-3.85-4.09-3.85h-4.05c-.18,0-.32.14-.32.32v11.71c0,.18.14.32.32.32h.07c.17,0,.3-.14.3-.32v-4.24h3.69c.12,0,.22,0,.34,0l2.65,4.46c.05.1.14.16.25.16ZM78.54,8.45h-3.69V2.05h3.68c1.94,0,3.4,1.35,3.4,3.15s-1.49,3.25-3.39,3.25Z"/><path class="b" d="M38.41,32.72c-.04-.07-.12-.11-.2-.12-.09-.01-.18.02-.24.08-1.1,1.01-2.42,1.54-3.81,1.54-3.19,0-5.69-2.47-5.69-5.62s2.55-5.66,5.69-5.66c1.46,0,2.63.45,3.8,1.46.12.12.3.12.43-.01l.1-.12c.08-.12.06-.28-.06-.4-1.35-1.13-2.67-1.63-4.28-1.63-3.53,0-6.4,2.85-6.4,6.36s2.81,6.33,6.4,6.33c1.63,0,3.12-.6,4.31-1.73.11-.11.11-.29,0-.38l-.07-.09Z"/><path class="b" d="M49.45,17.95l-2.22,3.4c-.16.16-.11.31-.05.4l.08.1c.06.07.13.1.2.1s.13-.03.18-.07l1.99-3.2,2,3.2c.09.07.25.1.39-.05l.08-.1c.05-.07.11-.22-.07-.4l-2.19-3.37c-.11-.11-.31-.11-.4-.01Z"/><path class="b" d="M71.01,22.41h-.07c-.18,0-.32.14-.32.32v10.81l-8.46-11.28c-.08-.12-.22-.17-.36-.13-.14.04-.23.17-.23.31v12c0,.18.14.32.32.32h.07c.18,0,.32-.14.32-.32v-10.85l8.46,11.28c.06.09.16.14.26.14.03,0,.06,0,.09-.01.14-.04.23-.17.23-.31v-11.97c0-.18-.14-.32-.32-.32Z"/><path class="b" d="M83.25,22.41h-3.41c-.17,0-.3.14-.3.32v11.71c0,.18.13.32.3.32h3.41c3.43,0,6.22-2.78,6.22-6.19s-2.79-6.16-6.22-6.16ZM83.25,34.05h-3.03v-10.94h3.03c3.05,0,5.54,2.45,5.54,5.45s-2.48,5.49-5.54,5.49Z"/><path class="b" d="M97.15,22.4h.07c.18,0,.32.14.32.32v11.71c0,.18-.14.32-.32.32h-.07c-.18,0-.32-.14-.32-.32v-11.71c0-.18.14-.32.32-.32Z"/><path class="b" d="M109.46,22.4h-3.42c-.17,0-.3.14-.3.32v11.71c0,.18.13.32.3.32h3.42c3.43,0,6.22-2.78,6.22-6.19s-2.79-6.16-6.22-6.16ZM109.46,34.05h-3.03v-10.94h3.03c3.05,0,5.54,2.45,5.54,5.45s-2.48,5.49-5.54,5.49Z"/><path class="b" d="M132.22,34.36l-5.16-12.13c-.04-.08-.13-.18-.3-.18-.13,0-.22.09-.26.18l-5.27,12.15c-.05.15.02.3.18.35l.15.05s.22.06.33-.16l.97-2.24h-.03l1.68-3.79h0l2.27-5.22,2.21,5.22h0l1.11,2.59h0l1.47,3.46c.07.13.16.16.24.16.04,0,.07,0,.09-.01l.15-.05c.1-.03.14-.09.17-.14s.04-.12,0-.23Z"/><path class="b" d="M55.11,34.36l-5.16-12.13c-.04-.08-.13-.18-.3-.18-.13,0-.22.09-.26.18l-5.27,12.15c-.05.15.02.3.18.35l.15.05s.22.06.33-.16l.97-2.24h-.03l1.68-3.79h0l2.27-5.22,2.21,5.22h0l1.11,2.59h0l1.47,3.46c.07.13.16.16.24.16.04,0,.07,0,.09-.01l.15-.05c.1-.03.14-.09.17-.14s.04-.12,0-.23Z"/><path class="b" d="M99.23,13.3l-5.16-12.13c-.04-.08-.13-.18-.3-.18-.13,0-.22.09-.26.18l-5.27,12.15c-.05.15.02.3.18.35l.15.05s.22.06.33-.16l.97-2.24h-.03l1.68-3.79h0l2.27-5.22,2.21,5.22h0l1.11,2.59h0l1.47,3.46c.07.13.16.16.24.16.04,0,.07,0,.09-.01l.15-.05c.1-.03.14-.09.17-.14s.04-.12,0-.23Z"/><path class="b" d="M52.62,13.3l-5.16-12.13c-.04-.08-.13-.18-.3-.18-.13,0-.22.09-.26.18l-5.27,12.15c-.05.15.02.3.18.35l.15.05s.22.06.33-.16l.97-2.24h-.03l1.68-3.79h0l2.27-5.22,2.21,5.22h0l1.11,2.59h0l1.47,3.46c.07.13.16.16.24.16.04,0,.07,0,.09-.01l.15-.05c.1-.03.14-.09.17-.14s.04-.12,0-.23Z"/></svg>